<svg width="10" height="14" viewBox="0 0 10 14" fill="none" xmlns="http://www.w3.org/2000/svg">
<path d="M9 14H1C0.734784 14 0.48043 13.8946 0.292893 13.7071C0.105357 13.5196 0 13.2652 0 13V1C0 0.734784 0.105357 0.48043 0.292893 0.292893C0.48043 0.105357 0.734784 0 1 0H9C9.26522 0 9.51957 0.105357 9.70711 0.292893C9.89464 0.48043 10 0.734784 10 1V9.309L7.5 8.059L5 9.309V1H1V13H9V11H10V13C9.9996 13.2651 9.89412 13.5192 9.70667 13.7067C9.51922 13.8941 9.26509 13.9996 9 14ZM7.5 6.941L9 7.691V1H6V7.691L7.5 6.941Z" fill="#FF9B44"/>
</svg>
